/* XPM */
static char *_0924732045e4dafb999a92c18530e67ckgkAqGs7548H2hr[] = {
/* columns rows colors chars-per-pixel */
"32 32 42 1 ",
"  c #7678A2",
". c #3A0911",
"X c #811426",
"o c #A11B31",
"O c #615E88",
"+ c #73749E",
"@ c black",
"# c #484570",
"$ c #6F709A",
"% c #43406B",
"& c #6E6F99",
"* c white",
"= c #55517C",
"- c #71729C",
"; c #5C5983",
": c #72739D",
"> c #4D4A74",
", c #70719B",
"< c #65648E",
"1 c #413E69",
"2 c #605E88",
"3 c #585681",
"4 c #62608B",
"5 c #6B6A95",
"6 c #696893",
"7 c #5E5D87",
"8 c #676691",
"9 c #5E5E88",
"0 c #666690",
"q c #615F8A",
"w c #504E79",
"e c #72749E",
"r c #70719C",
"t c #48446F",
"y c #5B5883",
"u c #54507B",
"i c #57537E",
"p c #44416C",
"a c #5A5781",
"s c #60608A",
"d c #52507B",
"f c #63628C",
/* pixels */
"                                ",
"                                ",
"            .......             ",
"           .Xoooooo.            ",
"          .Xooo....o.           ",
"   O+    .Xooo.@@@@.o.          ",
"   #$    .Xoo.@@@@@@.o.         ",
"   %&   .XXoo.@@@@@@.o.         ",
"   %&   .XXXo.@*@@@*.o.         ",
"   =-   .X.Xo.@*@@@*.o.         ",
"   ;:   .X.Xo.@@@@@@.X.         ",
"   ;:    ..XXo.@@@@@.X.         ",
"   >,      .XXX.@@@.X.          ",
"<<<1234<<<<<..XX...X.5          ",
"66678906666.XXXoooooX.          ",
"          .XoooooooooX.         ",
"          .XoooooooooX.         ",
"          .ooooooooooo.         ",
"         .Xooooooooooo.         ",
"         .XooooooXooooX.        ",
"         .XooooooXooooX.        ",
"         .XoooooX.XooXX.        ",
"        .XXXoXoXX.XXoXX.        ",
"        .XXXXoXX.@.XXXX.        ",
"        .X.XXXX.@@.XX.X.        ",
"         ..X.XX.@@@.XX.         ",
"          .. ...  @...          ",
"             @@    @q           ",
"              @    @w+:-++e,r++,",
"              @    @tyu#yyi1pya1",
"                   sd           ",
"                   5f           "
};
