/* XPM */
static char *result[] = {
/* columns rows colors chars-per-pixel */
"32 32 46 1 ",
"  c #7678A2",
". c #3A0911",
"X c #A11B31",
"o c #811426",
"O c #615E88",
"+ c #73749E",
"@ c black",
"# c #484570",
"$ c #6F709A",
"% c #43406B",
"& c #6E6F99",
"* c white",
"= c #55517C",
"- c #71729C",
"; c #5C5983",
": c #72739D",
"> c #4D4A74",
", c #70719B",
"< c #65648E",
"1 c #413E69",
"2 c #605E88",
"3 c #585681",
"4 c #62608B",
"5 c #53507B",
"6 c #6B6A95",
"7 c #696893",
"8 c #5E5D87",
"9 c #676691",
"0 c #5E5E88",
"q c #666690",
"w c #6D6D98",
"e c #696993",
"r c #615F8A",
"t c #605F8A",
"y c #504E79",
"u c #72749E",
"i c #70719C",
"p c #48446F",
"a c #5B5883",
"s c #54507B",
"d c #57537E",
"f c #44416C",
"g c #5A5781",
"h c #60608A",
"j c #52507B",
"k c #63628C",
/* pixels */
"                                ",
"                                ",
"             .......            ",
"            .XXXXXXo.           ",
"           .X....XXXo.          ",
"   O+     .X.@@@@.XXXo.         ",
"   #$    .X.@@@@@@.XXo.         ",
"   %&    .X.@@@@@@.XXoo.        ",
"   %&    .X.*@@@*@.Xooo.        ",
"   =-    .X.*@@@*@.Xo.o.        ",
"   ;:    .o.@@@@@@.Xo.o.        ",
"   ;:    .o.@@@@@.Xoo..         ",
"   >,     .o.@@@.ooo.&          ",
"<<<1234<<<<.o...oo..56          ",
"777890q777.oXXXXXooo.w          ",
"         .oXXXXXXXXXo.          ",
"         .oXXXXXXXXXo.          ",
"         .XXXXXXXXXXX.          ",
"         .XXXXXXXXXXXo.         ",
"        .oXXXXoXXXXXXo.         ",
"        .oXXXXoXXXXXXo.         ",
"        .ooXXo.oXXXXXo.         ",
"        .ooXoo.ooXoXooo.        ",
"        .oooo.@.ooXoooo.        ",
"        .o.oo.@@.oooo.o.        ",
"         .oo.@@@.oo.o..         ",
"          ...@  ...6..          ",
"            @    @@er           ",
"            @    @ ty+:-++u,i++,",
"            @    @ tpas#aad1fag1",
"                   hj           ",
"                   6k           "
};
