/* XPM */
static char *ef0a8bf36b724b91dbed984bff1d1753FsDHob9ZI8CTBFhm[] = {
/* columns rows colors chars-per-pixel */
"32 32 32 1 ",
"  c #7678A2",
". c #615E88",
"X c #73749E",
"o c #6D6D97",
"O c #676590",
"+ c #484570",
"@ c #4C1E3A",
"# c #6B6A95",
"$ c #63628C",
"% c #DF815D",
"& c #9D3131",
"* c #FDC18C",
"= c #65648E",
"- c #696893",
"; c #696993",
": c #615F8A",
"> c #605F8A",
", c #504E79",
"< c #72739D",
"1 c #71729C",
"2 c #72749E",
"3 c #70719B",
"4 c #70719C",
"5 c #48446F",
"6 c #5B5883",
"7 c #54507B",
"8 c #57537E",
"9 c #413E69",
"0 c #44416C",
"q c #5A5781",
"w c #60608A",
"e c #52507B",
/* pixels */
"                                ",
"                                ",
"                                ",
"                                ",
"                                ",
"   .X              oO           ",
"   +@@             #$           ",
"   @%%@     &&     #$           ",
"   @%&@    &**&&&  #$           ",
"   @&@@ @@ &*%&**& &&           ",
"   @%&@@%%&&%&&*%&&**&     &&   ",
"   @&@@@%&&&*%&%&&&*%&    &**&  ",
"   @%&@@&@&&%&&*%&&%&& && &*%&  ",
"===@&@@@%&&&%%&%&&&*%&&**&&%&&  ",
"---@%&@@&@&&&&&*%&&%&&&*%&&*%&  ",
"   @&@@@%&&**&&%&&&*%&&%&&&%&&  ",
"   @%&@@&@&*%&&*%&&%&&&*%&&%%&  ",
"   @&@@@%&&%&&&%&&&*%&&%&&&%&&  ",
"   @%&@@&@&*%&&*%&&%&&&*%&&*%&  ",
"    @@ @&&&%&&&%&&&*%&&%&&&%&&  ",
"        @@&*%&&*%&&%&&&*%&&%%&  ",
"          &%&&&%&&&*%&&%&& &&   ",
"          &*%&&%%& && &%%&      ",
"          &%&& &&  #$  &&       ",
"          &%%&     #$           ",
"           &&      #$           ",
"                   #$           ",
"                   ;:           ",
"                   >,X<1XX234XX3",
"                   >567+668906q9",
"                   we           ",
"                   #$           "
};
