/* XPM */
static char *_3a0f8bdd5d84217c333fdb04fd4df42kNYFasaSg9vzDuEl[] = {
/* columns rows colors chars-per-pixel */
"32 32 39 1 ",
"  c #7678A2",
". c #615E88",
"X c #73749E",
"o c #484570",
"O c #6F709A",
"+ c #04193F",
"@ c #43406B",
"# c #6E6F99",
"$ c #0FEFFB",
"% c #0696DB",
"& c #03396B",
"* c #55517C",
"= c #71729C",
"- c #5C5983",
"; c #72739D",
": c #4D4A74",
"> c #70719B",
", c #FCFEFE",
"< c #65648E",
"1 c #413E69",
"2 c #605E88",
"3 c #585681",
"4 c #62608B",
"5 c #696893",
"6 c #5E5D87",
"7 c #676691",
"8 c #5E5E88",
"9 c #666690",
"0 c #C3242F",
"q c #E7333B",
"w c #72749E",
"e c #70719C",
"r c #5B5883",
"t c #54507B",
"y c #57537E",
"u c #44416C",
"i c #5A5781",
"p c #52507B",
"a c #63628C",
/* pixels */
"                                ",
"                                ",
"                                ",
"                                ",
"                                ",
"   .X                           ",
"   oO        +++++              ",
"   @#      ++$$$%%++            ",
"   @#     +$$$$$$%&&+           ",
"   *=    +$$$$$$$++&&+          ",
"   -;   +$$$$$$$$++&&&+         ",
"   -;   +$$$+++$$%%&&++         ",
"   :>  +$$$++,,+$%%%++,+        ",
"<<<1234+$$$++,,+$%%%++,+        ",
"5556789+$$$+++++$%%%++++        ",
"       +$$$$+++$%%%%&+++        ",
"       +$$$$$$$$%%%%&&&+        ",
"        +$$$$$$%%%%&&&+         ",
"        +$$$$%%%%++&&&+         ",
"         +%%%%%%%%%&&+          ",
"         +00%%%%%%&&&+          ",
"         +qq000&&&&&0+          ",
"        +&+qqqq00000q+          ",
"        +%&++qqqqqqqq+          ",
"       +%%%%&+qqqqqq+&+         ",
"       +%%%%&&++qqqq&&+         ",
"       +%%%&%%&&++q+&&+         ",
"        +&&%%%%%&&+&++          ",
"         +%%%%%&&&&&+X;=XXw>eXX>",
"         +%%%%++&&&&+rtorry1uri1",
"         +%%%%++&&&+p           ",
"         +%%%+ +&&&+a           "
};
