/* XPM */
static char *_4ef1ac4d890412a96eabd75f04eef6cm1B0yQjthKyNoIS3[] = {
/* columns rows colors chars-per-pixel */
"32 32 170 2 ",
"   c #1F1A28",
".  c #211E2B",
"X  c #3E122E",
"o  c #261F34",
"O  c #2F1D3C",
"+  c #371735",
"@  c #3F1430",
"#  c #361831",
"$  c #331D3B",
"%  c #391C3B",
"&  c #24202F",
"*  c #262232",
"=  c #292636",
"-  c #2C273C",
";  c #3D223F",
":  c #42122C",
">  c #441632",
",  c #451A36",
"<  c #4C1A35",
"1  c #401B3B",
"2  c #4D1D3A",
"3  c #4D213C",
"4  c #53223D",
"5  c #59253F",
"6  c #272740",
"7  c #2D2444",
"8  c #2D2844",
"9  c #2E2949",
"0  c #342343",
"q  c #392646",
"w  c #312A44",
"e  c #3D2846",
"r  c #31264A",
"t  c #352B4D",
"y  c #3A2C4D",
"u  c #373748",
"i  c #3A384C",
"p  c #342D52",
"a  c #363154",
"s  c #3B3355",
"d  c #353259",
"f  c #3C355B",
"g  c #3A385E",
"h  c #3C3A63",
"j  c #3F3F68",
"k  c #422841",
"l  c #472D4C",
"z  c #4B2C4D",
"x  c #542642",
"c  c #582640",
"v  c #562A46",
"b  c #5C2A45",
"n  c #552A4A",
"m  c #5D2D4A",
"M  c #57304B",
"N  c #58304C",
"B  c #452F50",
"V  c #403B57",
"C  c #41375A",
"Z  c #413A5E",
"A  c #563455",
"S  c #533B5E",
"D  c #58395B",
"F  c #602B45",
"G  c #622F4A",
"H  c #64324D",
"J  c #6A344E",
"K  c #653551",
"L  c #6C3652",
"P  c #673853",
"I  c #6D3954",
"U  c #723751",
"Y  c #723B54",
"T  c #743E5A",
"R  c #443D63",
"E  c #433F69",
"W  c #44405F",
"Q  c #76405C",
"!  c #7C445C",
"~  c #474166",
"^  c #44416B",
"/  c #4A446B",
"(  c #4F4B6C",
")  c #564064",
"_  c #5B4266",
"`  c #5A4569",
"'  c #5F4A6E",
"]  c #4B4771",
"[  c #4D4A74",
"{  c #4F4D79",
"}  c #514C76",
"|  c #524F79",
" . c #555177",
".. c #55527C",
"X. c #59557D",
"o. c #5B597D",
"O. c #614C6F",
"+. c #7E4661",
"@. c #7E4962",
"#. c #634D70",
"$. c #7B5676",
"%. c #82495E",
"&. c #834A63",
"*. c #894E64",
"=. c #8A4E68",
"-. c #8A5066",
";. c #8E5269",
":. c #905267",
">. c #92556B",
",. c #97596D",
"<. c #9A5A6E",
"1. c #9D5D71",
"2. c #A05E71",
"3. c #86637F",
"4. c #A46274",
"5. c #A96576",
"6. c #AD6977",
"7. c #A96778",
"8. c #AD6A7A",
"9. c #565480",
"0. c #5A5682",
"q. c #5D5A85",
"w. c #5F5C88",
"e. c #635C85",
"r. c #615D8A",
"t. c #63628C",
"y. c #6A638A",
"u. c #7B6182",
"i. c #7D678A",
"p. c #676690",
"a. c #686791",
"s. c #686791",
"d. c #666994",
"f. c #696992",
"g. c #6D6D96",
"h. c #6A6994",
"j. c #6B6D9A",
"k. c #716A92",
"l. c #6F709A",
"z. c #6D719D",
"x. c #777095",
"c. c #70719B",
"v. c #71729B",
"b. c #71739D",
"n. c #73749E",
"m. c #72749D",
"M. c #70719B",
"N. c #7375A0",
"B. c #7577A1",
"V. c #7474A1",
"C. c #7376A2",
"Z. c #7678A2",
"A. c #7678A3",
"S. c #777AA4",
"D. c #7678A3",
"F. c #787AA5",
"G. c #787BA7",
"H. c #7C7FAB",
"J. c #7C7EAC",
"K. c #7C7EAB",
"L. c #8F7591",
"P. c #817DA2",
"I. c #7C80AB",
"U. c #7F83AE",
"Y. c #7F82AD",
"T. c #96829D",
"R. c #8184AF",
"E. c #8C88AA",
"W. c #8083B0",
"Q. c #8185B1",
/* pixels */
"Z.Z.Z.Z.Z.Z.Z.Z.Z.Z.Z.Z.Z.Z.Z.Z.Z.Z.Z.Z.Z.Z.Z.Z.Z.Z.Z.Z.Z.Z.Z.Z.",
"Z.Z.Z.Z.Z.Z.Z.Z.B.t.o.X.f R V u i Z R R q.o.f.Z.Z.Z.Z.Z.Z.Z.Z.Z.",
"Z.Z.Z.Z.Z.Z.B.l.o.R W f b.Y.Y.W.W.Y.Y.w.d ~ ~ t.c.Z.Z.Z.Z.Z.Z.Z.",
"Z.Z.Z.Z.Z.n.X.Z X.S.B.f t.n.c.c.c.b.b.} / J.n./ R t.Z.Z.Z.Z.Z.Z.",
"Z.Z.Z.Z.c.( / N.Y.b.q.] [ 0.0.0.0.0.../ ] t.S.R.h.Z q.B.Z.Z.Z.Z.",
"Z.Z.Z.X./ R q.f.p.0.0...p ] ..| | | h d q.0.q.s.f. .R ..c.Z.Z.Z.",
"Z.Z.B.p 0.H...9 R | ] f $ $ 0 q q 0 $ 0 h { [ a p t.K.~ o.Z.Z.Z.",
"Z.Z.e.Z F.F.q.f 6 t % % 2 4 G 4 4 G G b % q 8 6 E t.R.f.R c.Z.Z.",
"Z.g.Z s.I.r.0.{ 8 # < c I &.4.J H 1.&.Q G 4 k p 9.0.s.Q.} } n.Z.",
"Z...} Y.l.w.[ t 1 b 4 I &.5.7.J m 1.+.;.*.Y &.z d ..r.F.Z.f g.Z.",
"Z./ Z | } ..g % < I 4 Q +.5.4.I H ,.&.4.>.;.4.! q ^ ..} } t t.Z.",
"Z./ q.^ f p 0 , m @.G ;.! 4.4.&.*.4.*.4.*.! 4.<.I 0 a f ] q.Z Z.",
"Z...F.q.} d % < H <.+.1.:.4.4.*.>.5.1.4.*.! ;.>.! 7 h | t.H.s Z.",
"t.( j.X.0.h 0 > m <.&.1.4.4.4.=.>.5.4.5.! Y 4.4.-.r ^ q...B.w Z.",
"f.s w.e.9.d % 4 H <.I <.4.4.4.! *.7.4.7.&.! 2.4.<.l h q.q.q.* Z.",
"Z.o R [ j 0 > m &.4.Y 1.<.;.5.J ! 8.<.>.%.! ;.>.5.P t ^ [ d   Z.",
"Z.8 { 9.h 0 > m >.7.G ,.,.@.7.Y %.8.>.! ;.&.&.>.7.I r ^ 0.^ o Z.",
"Z.R q.q.{ q > b >.6.b Q ,.&.7.! *.8.:.T *.&.<.<.4.K d ..0.q.p Z.",
"Z.R q.q.{ q @ v :.;.4 T >.+.,.b J 4.,.! H m <.4.2.H d ..0.q.- Z.",
"Z.R w.q.| t e M J H F H H H H m F J J H F F H J J x f 0.q.r.= Z.",
"Z.t ] [ g 0 Y >.>.;.:.>.>.2.;.:.:.>.;.:.:.;.:.;.<.! t R [ / & Z.",
"Z.a | | ^ O 4 T L T.x.v Q ! I L.P.n L Y 3.E.D G +.K 7 h | } * Z.",
"Z.R r.r...0 c ! T i.e.v Q T T u.y.n Y T $.k.A J &.H s 9.q.r.= Z.",
"Z.R q.w.| 0 ; N G b F H m G H b F H G m b b G m G 3 R t.q.q.w Z.",
"Z.p [ 0./ 0 + x I L 2 H I H K 4 b Y L I b x I I Y v s ..0.^ 0 Z.",
"Z.8 R [ f 0 > J 4.1.c -.4.&.&.H Y 5.<.4.Y H 4.<.4.@.0 g ] R . Z.",
"Z.f 0.r...q X J 1.7.b <.4.1.<.U ! 1.1.7.! U 7.>.7.*.C 9.q.r.- Z.",
"Z.R w.q.{ q : 4 J U 2 J J U U 4 b J J U b 5 U G U b s ..0.q.8 Z.",
"Z.R q.q.] y S _ S ` #.O.' ' ' O.O.O.O.' O.#.) S _ B s ..0.w.w c.",
"Z.~ r.r.] Z t.j.d.N.S.S.S.S.S.S.S.A.S.S.S.G.z.d.j...Z X.q.q.t E ",
"Z.] } } ] | 0.0.t.s.p.p.p.p.p.p.p.p.p.w.0.s.s.w.0.0.[ [ | R R Z.",
"Z.Z.Z.Z.Z.Z.Z.Z.Z.Z.Z.Z.Z.Z.Z.Z.Z.Z.Z.h.t.Z.Z.Z.Z.Z.Z.Z.Z.Z.Z.Z."
};