/* XPM */
static char *cbf7492661334d19face59fab628278edXhP1ETNTfIA7a99[] = {
/* columns rows colors chars-per-pixel */
"32 32 57 1 ",
"  c #7678A2",
". c #615E88",
"X c #73749E",
"o c #6D6D97",
"O c #676590",
"+ c #484570",
"@ c #6F709A",
"# c #6B6A95",
"$ c #63628C",
"% c #43406B",
"& c #6E6F99",
"* c #55517C",
"= c #71729C",
"- c #5C5983",
"; c #72739D",
": c #585680",
"> c #514E79",
", c #6A6993",
"< c #4D4A74",
"1 c #70719B",
"2 c #71719C",
"3 c #5F5E88",
"4 c #65648E",
"5 c #413E69",
"6 c #605E88",
"7 c #585681",
"8 c #62608B",
"9 c #5B5A84",
"0 c #5E5D88",
"q c #5D5C87",
"w c #55547E",
"e c #504E79",
"r c #53507B",
"t c #696893",
"y c #5E5D87",
"u c #676691",
"i c #5E5E88",
"p c #666690",
"a c #61608B",
"s c #64638D",
"d c #5C5B86",
"f c #61608A",
"g c #6D6D98",
"h c #6C6C97",
"j c #696993",
"k c #615F8A",
"l c #605F8A",
"z c #72749E",
"x c #70719C",
"c c #48446F",
"v c #5B5883",
"b c #54507B",
"n c #57537E",
"m c #44416C",
"M c #5A5781",
"N c #60608A",
"B c #52507B",
/* pixels */
"                                ",
"                                ",
"                                ",
"                                ",
"                                ",
"   .X              oO           ",
"   +@              #$           ",
"   %&              #$           ",
"   %&              #$           ",
"   *=              #$           ",
"   -;              #$           ",
"   -;           o$$:>,          ",
"   <1           2##3:&          ",
"4445678444449044qwwer#          ",
"tttyuiptttttastt$dddfg          ",
"                   1h           ",
"                   #$           ",
"                   #$           ",
"                   #$           ",
"                   #$           ",
"                   #$           ",
"                   #$           ",
"                   #$           ",
"                   #$           ",
"                   #$           ",
"                   #$           ",
"                   #$           ",
"                   jk           ",
"                   leX;=XXz1xXX1",
"                   lcvb+vvn5mvM5",
"                   NB           ",
"                   #$           "
};
