/* XPM */
static char *_dc17816285c4245d89f93f265ac11549P1P5v67XuJBnhVN[] = {
/* columns rows colors chars-per-pixel */
"32 32 151 2 ",
"   c #451A37",
".  c #481B37",
"X  c #471C38",
"o  c #4B1E3A",
"O  c #4F213D",
"+  c #52223E",
"@  c #322646",
"#  c #3A2444",
"$  c #362847",
"%  c #3D2847",
"&  c #392A48",
"*  c #462747",
"=  c #4C2745",
"-  c #462947",
";  c #532542",
":  c #582642",
">  c #542844",
",  c #5B2A44",
"<  c #5E2D4A",
"1  c #55314E",
"2  c #5D314F",
"3  c #573250",
"4  c #5E3250",
"5  c #602E47",
"6  c #612F4B",
"7  c #63314D",
"8  c #68344C",
"9  c #6E384F",
"0  c #663451",
"q  c #693652",
"w  c #653955",
"e  c #6D3955",
"r  c #6D3C59",
"t  c #733C55",
"y  c #723D59",
"u  c #413E69",
"i  c #764057",
"p  c #784057",
"a  c #76415C",
"s  c #7A435D",
"d  c #614C6F",
"f  c #7C4661",
"g  c #7F4863",
"h  c #624E71",
"j  c #80475F",
"k  c #81485F",
"l  c #844B64",
"z  c #894F65",
"x  c #8D5166",
"c  c #8C5168",
"v  c #905367",
"b  c #935569",
"n  c #96596C",
"m  c #99596D",
"M  c #98596D",
"N  c #9A5A6D",
"B  c #995B6E",
"V  c #9A5A6E",
"C  c #9A5B6E",
"Z  c #9B5B6E",
"A  c #9A5A6F",
"S  c #9A5B6F",
"D  c #9B5B6F",
"F  c #9B5C6F",
"G  c #9C5D6F",
"H  c #995B72",
"J  c #9C5B70",
"K  c #9A5C70",
"L  c #9B5C70",
"P  c #9C5C70",
"I  c #9C5D70",
"U  c #9E5D70",
"Y  c #9F5E70",
"T  c #9E5E71",
"R  c #9F5E71",
"E  c #9E5F71",
"W  c #9E5D72",
"Q  c #9F5D72",
"!  c #9E5E72",
"~  c #9F5E72",
"^  c #9E5F73",
"/  c #9F5E71",
"(  c #A05F71",
")  c #A25F71",
"_  c #A15F72",
"`  c #9F6071",
"'  c #9F6072",
"]  c #A16072",
"[  c #A26072",
"{  c #A26172",
"}  c #A26073",
"|  c #A36073",
" . c #A26173",
".. c #A36173",
"X. c #A36272",
"o. c #A36273",
"O. c #A46173",
"+. c #A46273",
"@. c #A56273",
"#. c #A36174",
"$. c #A36274",
"%. c #A36275",
"&. c #A46274",
"*. c #A46374",
"=. c #A56374",
"-. c #A46275",
";. c #A46375",
":. c #A56375",
">. c #A66374",
",. c #A56474",
"<. c #A66475",
"1. c #A76475",
"2. c #A66575",
"3. c #A76575",
"4. c #A66476",
"5. c #A66477",
"6. c #A76477",
"7. c #A76577",
"8. c #A86475",
"9. c #A86575",
"0. c #A86576",
"q. c #A96576",
"w. c #A86577",
"e. c #A96577",
"r. c #A86676",
"t. c #A86677",
"y. c #A96677",
"u. c #A86777",
"i. c #AA6677",
"p. c #AA6777",
"a. c #AB6777",
"s. c #A76478",
"d. c #A76578",
"f. c #A76678",
"g. c #A96678",
"h. c #AA6778",
"j. c #AB6778",
"k. c #AA6878",
"l. c #AB6878",
"z. c #AC6979",
"x. c #AE6979",
"c. c #AF6A7A",
"v. c #B16D7B",
"b. c #B16E7C",
"n. c #65648E",
"m. c #63628C",
"M. c #696893",
"N. c #6B6A95",
"B. c #70719B",
"V. c #7678A2",
"C. c #7678A2",
/* pixels */
"V.V.V.V.V.V.V.V.V.V.V.V.V.V.V.V.V.V.V.V.V.V.V.V.V.V.V.V.V.V.V.V.",
"V.d 3 ; > > > > > > > > > > > > > > > > > > > > > > > > + 3 h V.",
"V.2 t x b b v v v v v v v v v v v v v v v v v v v v b b x t 2 V.",
"V.i z n v ( 5.%.%.&.%.%.&.&.&...&.&.&.&.&.&.&.&.%.5.` v n z y V.",
"V.i ( ( 8 < q y y e y y e q e y y e e e e e e e y q < 8 ..! y V.",
"V.i ( @.t q q e y 6 q y 8 , e a O + 7 5 , O o , q e q t 5.! y V.",
"V.y V 5.l z ! x.p.z l ! 5.5.p.V 7 l v.p.V t t p.b.! z l f.V y V.",
"V.y V 5.l z ! p.@.l l J ....@.V f v p...K z z @.p.V z l f.V y V.",
"V.y V 5.l z V x.&.e t V &...@.V s x p.&.n t t &.x.V l l 5.V y V.",
"V.y V 5.l z V p.%.z z G ......! n F %.&.n y a &.x.V z l 5.V y V.",
"V.y V 5.l z ! &...p.p...................F z z @.p.V l l 5.V y V.",
"V.y V 5.l z K &...! ! ( ......F z b &...` V V ..5.V l l f.V y V.",
"V.y V 5.l c ! x.p.z z ! 5.&.5...n ! p.5.! z z p.x.! c z f.V y V.",
"n.i ! p.p a z K n s s c v v b c s z n b c s s n K z y p h.! y V.",
"M.p V V t t f z l l l l l l l l l l l l l l l l z f t t F V p V.",
"V.e l H ! l.h.p.p.h.l.h.h.h.p.5.l.h.h.h.p.5.p.h.p.x.x.! n s q V.",
"V.; , t l s s l p t e t t 9 p l y 9 t t y l k t 9 9 t s z y < V.",
"V., < 0 q 0 q e 0 < < < < < 0 r 7 < < < 7 e e < < < < 7 l l t V.",
"V.7 a l s s f s f f f f f f s s f f f f s s s f f f s a n c p V.",
"V.< e a e e y y y t e r r r r e e e y y e e r r y r e e s t 7 V.",
"V.O O > > > + + > : > % @ $ * > > > + + ; - & $ @ # = : > o o V.",
"V.X ; q s f < O 7 y f w # 1 y y y y < o q f r 3 # 1 s a 7 ; X V.",
"V.X > e f f e 7 e a l t + 7 s a a a q < y g s q > 7 l z s , X V.",
"V.X > e f f e q e y f e o 6 a a a a a f a a a 7 + < f z p , X V.",
"V.X > e f f 7 + 0 a f y q e a a a a e 7 y f a e q e f z s , X V.",
"V.. > e f g 7 ; 0 a f y < q a a a y 7 o e g a e 7 q f z p ,   V.",
"V.< 6 < ; > + o + > , ; X + > > > > + o ; > > + X + > ; < 6 < V.",
"V.< s x p s x b v b j y z v v v v v v v v x v v v v x x ! v t V.",
"V.7 y l f f f g f g f f f f f f f f f f f f f f f f f f n x i B.",
"V.4 0 y e e e e e e e e e e e e e e e e e e e e e e e e y q < u ",
"V.h 3 + ; ; ; ; ; ; ; ; ; ; ; ; ; ; ; ; O ; ; ; ; ; ; ; + 3 h V.",
"V.V.V.V.V.V.V.V.V.V.V.V.V.V.V.V.V.V.V.N.m.V.V.V.V.V.V.V.V.V.V.V."
};